<svg width="512" height="512" viewBox="0 0 512 512" fill="none" xmlns="http://www.w3.org/2000/svg">
<rect width="512" height="512" rx="64" fill="#0D6EFD"/>
<g clip-path="url(#clip0_54_102)">
<path d="M287.032 64H160C147.27 64 135.061 69.0571 126.059 78.0589C117.057 87.0606 112 99.2696 112 112V400C112 412.73 117.057 424.939 126.059 433.941C135.061 442.943 147.27 448 160 448H352C364.73 448 376.939 442.943 385.941 433.941C394.943 424.939 400 412.73 400 400V176.968C399.999 170.603 397.469 164.5 392.968 160L304 71.032C299.5 66.5308 293.397 64.0014 287.032 64ZM292 148V100L364 172H316C309.635 172 303.53 169.471 299.029 164.971C294.529 160.47 292 154.365 292 148ZM172 280C168.817 280 165.765 278.736 163.515 276.485C161.264 274.235 160 271.183 160 268C160 264.817 161.264 261.765 163.515 259.515C165.765 257.264 168.817 256 172 256H340C343.183 256 346.235 257.264 348.485 259.515C350.736 261.765 352 264.817 352 268C352 271.183 350.736 274.235 348.485 276.485C346.235 278.736 343.183 280 340 280H172ZM160 316C160 312.817 161.264 309.765 163.515 307.515C165.765 305.264 168.817 304 172 304H340C343.183 304 346.235 305.264 348.485 307.515C350.736 309.765 352 312.817 352 316C352 319.183 350.736 322.235 348.485 324.485C346.235 326.736 343.183 328 340 328H172C168.817 328 165.765 326.736 163.515 324.485C161.264 322.235 160 319.183 160 316ZM172 376C168.817 376 165.765 374.736 163.515 372.485C161.264 370.235 160 367.183 160 364C160 360.817 161.264 357.765 163.515 355.515C165.765 353.264 168.817 352 172 352H268C271.183 352 274.235 353.264 276.485 355.515C278.736 357.765 280 360.817 280 364C280 367.183 278.736 370.235 276.485 372.485C274.235 374.736 271.183 376 268 376H172Z" fill="white"/>
</g>
<defs>
<clipPath id="clip0_54_102">
<rect width="384" height="384" fill="white" transform="translate(64 64)"/>
</clipPath>
</defs>
</svg>
