<svg width="384" height="384" viewBox="0 0 384 384" fill="none" xmlns="http://www.w3.org/2000/svg">
<g clip-path="url(#clip0_54_103)">
<path d="M223.032 0H96C83.2696 0 71.0606 5.05713 62.0589 14.0589C53.0571 23.0606 48 35.2696 48 48V336C48 348.73 53.0571 360.939 62.0589 369.941C71.0606 378.943 83.2696 384 96 384H288C300.73 384 312.939 378.943 321.941 369.941C330.943 360.939 336 348.73 336 336V112.968C335.999 106.603 333.469 100.5 328.968 96L240 7.032C235.5 2.53082 229.397 0.0013593 223.032 0ZM228 84V36L300 108H252C245.635 108 239.53 105.471 235.029 100.971C230.529 96.4697 228 90.3652 228 84ZM108 216C104.817 216 101.765 214.736 99.5147 212.485C97.2643 210.235 96 207.183 96 204C96 200.817 97.2643 197.765 99.5147 195.515C101.765 193.264 104.817 192 108 192H276C279.183 192 282.235 193.264 284.485 195.515C286.736 197.765 288 200.817 288 204C288 207.183 286.736 210.235 284.485 212.485C282.235 214.736 279.183 216 276 216H108ZM96 252C96 248.817 97.2643 245.765 99.5147 243.515C101.765 241.264 104.817 240 108 240H276C279.183 240 282.235 241.264 284.485 243.515C286.736 245.765 288 248.817 288 252C288 255.183 286.736 258.235 284.485 260.485C282.235 262.736 279.183 264 276 264H108C104.817 264 101.765 262.736 99.5147 260.485C97.2643 258.235 96 255.183 96 252ZM108 312C104.817 312 101.765 310.736 99.5147 308.485C97.2643 306.235 96 303.183 96 300C96 296.817 97.2643 293.765 99.5147 291.515C101.765 289.264 104.817 288 108 288H204C207.183 288 210.235 289.264 212.485 291.515C214.736 293.765 216 296.817 216 300C216 303.183 214.736 306.235 212.485 308.485C210.235 310.736 207.183 312 204 312H108Z" fill="white"/>
</g>
<defs>
<clipPath id="clip0_54_103">
<rect width="384" height="384" fill="white"/>
</clipPath>
</defs>
</svg>
