<?xml version="1.0" standalone="no"?>
<!DOCTYPE svg PUBLIC "-//W3C//DTD SVG 20010904//EN"
 "http://www.w3.org/TR/2001/REC-SVG-20010904/DTD/svg10.dtd">
<svg version="1.0" xmlns="http://www.w3.org/2000/svg"
 width="700.000000pt" height="700.000000pt" viewBox="0 0 700.000000 700.000000"
 preserveAspectRatio="xMidYMid meet">
<metadata>
Created by potrace 1.14, written by Peter Selinger 2001-2017
</metadata>
<g transform="translate(0.000000,700.000000) scale(0.100000,-0.100000)"
fill="#000000" stroke="none">
<path d="M1590 6984 c-353 -74 -607 -318 -692 -661 l-21 -88 -1 -2710 c0
-1490 3 -2735 7 -2765 25 -184 107 -354 238 -491 124 -129 269 -208 454 -250
75 -16 194 -17 1920 -18 1946 0 1895 -1 2030 44 290 98 503 332 577 632 l21
88 1 2104 c1 1575 -2 2118 -11 2162 -26 129 -9 110 -925 1027 -587 587 -869
862 -904 882 -106 61 -44 59 -1394 58 -1011 0 -1247 -2 -1300 -14z m3225
-1299 c355 -355 645 -647 645 -650 0 -3 -206 -5 -458 -5 -487 1 -509 3 -609
51 -99 48 -197 172 -224 286 -14 54 -19 963 -6 963 4 0 297 -290 652 -645z
m314 -2208 c96 -53 139 -155 110 -261 -14 -52 -80 -121 -132 -139 -36 -12
-278 -14 -1607 -14 -1440 0 -1568 1 -1608 16 -83 33 -142 117 -142 202 0 57
41 141 82 171 70 49 -2 47 1683 45 1515 -2 1581 -3 1614 -20z m-4 -874 c164
-87 165 -313 0 -393 l-44 -21 -1581 0 -1581 0 -44 21 c-103 50 -150 173 -107
281 23 57 86 111 149 128 13 3 731 6 1595 6 l1573 -1 40 -21z m-1324 -872
c144 -62 180 -240 71 -354 -61 -64 -6 -61 -1014 -63 -994 -3 -971 -4 -1029 50
-53 50 -74 96 -74 166 1 97 42 161 130 201 38 17 90 18 956 19 875 0 919 -1
960 -19z"/>
</g>
</svg>
